<?xml version="1.0" encoding="utf-8"?>
<!-- Generator: Adobe Illustrator 23.0.6, SVG Export Plug-In . SVG Version: 6.00 Build 0)  -->
<svg version="1.1" id="Layer_1" xmlns="http://www.w3.org/2000/svg" xmlns:xlink="http://www.w3.org/1999/xlink" x="0px" y="0px"
	 viewBox="0 0 498.3 166.7" style="enable-background:new 0 0 498.3 166.7;" xml:space="preserve">
<style type="text/css">
	.st0{fill:#FDBE68;}
	.st1{fill:none;stroke:#27AAE1;stroke-miterlimit:10;}
	.st2{fill:#629857;}
	.st3{fill:#F26C55;}
	.st4{fill:#4B6F98;}
	.st5{fill:#6552A0;}
</style>
<g>
	<g>
		<g>
			<g>
				<path class="st0" d="M385,165.1c0,0,44.5-3.9,111.1-81.7C429.4,5.5,385,1.6,385,1.6l-271.7,0c0,0-44.5,3.9-111.1,81.7
					c66.7,77.9,111.1,81.7,111.1,81.7L385,165.1z"/>
			</g>
			<g>
				<g>
					<path class="st1" d="M249.1,83.4"/>
				</g>
				<g>
					<path class="st2" d="M238.2,146.5c0,11.6-11,18.7-11,18.7s-11-7.1-11-18.7"/>
				</g>
				<g>
					<path class="st2" d="M216.3,146.5c0,11.6-11,18.7-11,18.7s-11-7.1-11-18.7"/>
				</g>
				<g>
					<path class="st2" d="M194.3,146.5c0,11.6-11,18.7-11,18.7s-11-7.1-11-18.7"/>
				</g>
				<g>
					<path class="st2" d="M172.4,146.5c0,11.6-11,18.7-11,18.7s-11-7.1-11-18.7"/>
				</g>
				<g>
					<path class="st2" d="M150.5,146.5c0,11.6-11,18.7-11,18.7s-11-7.1-11-18.7"/>
				</g>
				<g>
					<path class="st2" d="M128.5,146.5c-1,11.5-12.5,17.6-12.5,17.6s-10.3-8-9.3-19.5"/>
				</g>
				<g>
					<path class="st2" d="M106.6,144.8c-5.6,10.1-18.6,11-18.6,11s-6.2-11.5-0.5-21.6"/>
				</g>
				<g>
					<path class="st2" d="M87.4,134.3c-6.5,9.6-19.5,9.3-19.5,9.3s-5.1-12,1.3-21.6"/>
				</g>
				<g>
					<path class="st2" d="M69.1,122.2c-7.4,8.9-20.4,7.2-20.4,7.2s-3.8-12.5,3.6-21.3"/>
				</g>
				<g>
					<path class="st2" d="M52.1,107.9c-8,8.3-20.8,5.8-20.8,5.8s-3-12.7,5.1-21"/>
				</g>
				<g>
					<path class="st2" d="M260.1,146.5c0,11.6-11,18.7-11,18.7s-11-7.1-11-18.7"/>
				</g>
				<g>
					<path class="st2" d="M260.1,146.5c0,11.6,11,18.7,11,18.7s11-7.1,11-18.7"/>
				</g>
				<g>
					<path class="st2" d="M282,146.5c0,11.6,11,18.7,11,18.7s11-7.1,11-18.7"/>
				</g>
				<g>
					<path class="st2" d="M303.9,146.5c0,11.6,11,18.7,11,18.7s11-7.1,11-18.7"/>
				</g>
				<g>
					<path class="st2" d="M325.8,146.5c0,11.6,11,18.7,11,18.7s11-7.1,11-18.7"/>
				</g>
				<g>
					<path class="st2" d="M347.7,146.5c0,11.6,11,18.7,11,18.7s11-7.1,11-18.7"/>
				</g>
				<g>
					<path class="st2" d="M369.7,146.5c1,11.5,12.5,17.6,12.5,17.6s10.3-8,9.3-19.5"/>
				</g>
				<g>
					<path class="st2" d="M391.6,144.8c5.6,10.1,18.6,11,18.6,11s6.2-11.5,0.5-21.6"/>
				</g>
				<g>
					<path class="st2" d="M410.9,134.3c6.5,9.6,19.5,9.3,19.5,9.3s5.1-12-1.3-21.6"/>
				</g>
				<g>
					<path class="st2" d="M429.1,122.2c7.4,8.9,20.4,7.2,20.4,7.2s3.8-12.5-3.6-21.3"/>
				</g>
				<g>
					<path class="st2" d="M446.1,107.9c8,8.3,20.8,5.8,20.8,5.8s3-12.7-5.1-21"/>
				</g>
			</g>
			<g>
				<g>
					<path class="st1" d="M249.1,83.4"/>
				</g>
				<g>
					<path class="st2" d="M260.1,20.3c0-11.6,11-18.7,11-18.7s11,7.1,11,18.7"/>
				</g>
				<g>
					<path class="st2" d="M282,20.3c0-11.6,11-18.7,11-18.7s11,7.1,11,18.7"/>
				</g>
				<g>
					<path class="st2" d="M303.9,20.3c0-11.6,11-18.7,11-18.7s11,7.1,11,18.7"/>
				</g>
				<g>
					<path class="st2" d="M325.8,20.3c0-11.6,11-18.7,11-18.7s11,7.1,11,18.7"/>
				</g>
				<g>
					<path class="st2" d="M347.7,20.3c0-11.6,11-18.7,11-18.7s11,7.1,11,18.7"/>
				</g>
				<g>
					<path class="st2" d="M369.7,20.3c1-11.5,12.5-17.6,12.5-17.6s10.3,8,9.3,19.5"/>
				</g>
				<g>
					<path class="st2" d="M391.6,21.9c5.6-10.1,18.6-11,18.6-11s6.2,11.5,0.5,21.6"/>
				</g>
				<g>
					<path class="st2" d="M410.9,32.4c6.5-9.6,19.5-9.3,19.5-9.3s5.1,12-1.3,21.6"/>
				</g>
				<g>
					<path class="st2" d="M429.1,44.6c7.4-8.9,20.4-7.2,20.4-7.2s3.8,12.5-3.6,21.3"/>
				</g>
				<g>
					<path class="st2" d="M446.1,58.8c8-8.3,20.8-5.8,20.8-5.8s3,12.7-5.1,21"/>
				</g>
				<g>
					<path class="st2" d="M238.2,20.3c0-11.6,11-18.7,11-18.7s11,7.1,11,18.7"/>
				</g>
				<g>
					<path class="st2" d="M238.2,20.3c0-11.6-11-18.7-11-18.7s-11,7.1-11,18.7"/>
				</g>
				<g>
					<path class="st2" d="M216.3,20.3c0-11.6-11-18.7-11-18.7s-11,7.1-11,18.7"/>
				</g>
				<g>
					<path class="st2" d="M194.3,20.3c0-11.6-11-18.7-11-18.7s-11,7.1-11,18.7"/>
				</g>
				<g>
					<path class="st2" d="M172.4,20.3c0-11.6-11-18.7-11-18.7s-11,7.1-11,18.7"/>
				</g>
				<g>
					<path class="st2" d="M150.5,20.3c0-11.6-11-18.7-11-18.7s-11,7.1-11,18.7"/>
				</g>
				<g>
					<path class="st2" d="M128.5,20.3C127.5,8.7,116,2.6,116,2.6s-10.3,8-9.3,19.5"/>
				</g>
				<g>
					<path class="st2" d="M106.6,21.9C101,11.8,88,10.9,88,10.9s-6.2,11.5-0.5,21.6"/>
				</g>
				<g>
					<path class="st2" d="M87.4,32.4c-6.5-9.6-19.5-9.3-19.5-9.3s-5.1,12,1.3,21.6"/>
				</g>
				<g>
					<path class="st2" d="M69.1,44.6c-7.4-8.9-20.4-7.2-20.4-7.2s-3.8,12.5,3.6,21.3"/>
				</g>
				<g>
					<path class="st2" d="M52.1,58.8c-8-8.3-20.8-5.8-20.8-5.8s-3,12.7,5.1,21"/>
				</g>
			</g>
			<g>
				<path class="st2" d="M37.3,94.3c-21.8,0-35.1-11-35.1-11s13.3-11,35.1-11l-10.2,11L37.3,94.3z"/>
			</g>
			<g>
				<path class="st2" d="M461,72.4c21.8,0,35.1,11,35.1,11s-13.3,11-35.1,11l10.2-11L461,72.4z"/>
			</g>
			<g>
				<g>
					<path class="st3" d="M383.7,148.1H114.5l-0.2,0c-1-0.2-3.2-0.7-6.5-1.8c-4.2-1.5-11.1-4.3-20.1-9.5
						c-10.1-5.9-20.7-13.5-31.5-22.7c-10-8.5-20.2-18.5-30.5-29.6l-1-1.1l1-1.1c10.2-11.1,20.5-21.1,30.5-29.6
						C67.1,43.5,77.7,35.8,87.8,30c9-5.2,15.9-8,20.1-9.5c3.2-1.1,5.4-1.6,6.5-1.8l0.2,0h269.2l0.2,0c1,0.2,3.2,0.7,6.5,1.8
						c4.2,1.5,11.1,4.3,20.1,9.5c10.1,5.9,20.7,13.5,31.5,22.7h0c10,8.5,20.2,18.5,30.5,29.6l1,1.1l-1,1.1
						c-10.2,11.1-20.5,21.1-30.5,29.6c-10.8,9.2-21.4,16.9-31.5,22.7c-9,5.2-15.9,8-20.1,9.5c-3.2,1.1-5.4,1.6-6.5,1.8L383.7,148.1z
						 M114.8,144.8h268.6c1-0.2,3-0.7,5.9-1.7c4.1-1.4,10.8-4.1,19.5-9.2c9.9-5.8,20.4-13.3,31-22.4c9.6-8.2,19.4-17.6,29.2-28.2
						c-9.8-10.6-19.6-20-29.2-28.2c-10.6-9.1-21.1-16.6-31-22.4c-8.7-5.1-15.4-7.8-19.5-9.2c-2.9-1-4.9-1.5-5.9-1.7H114.8
						c-1,0.2-3,0.7-5.9,1.7c-4.1,1.4-10.8,4.1-19.5,9.2c-9.9,5.8-20.4,13.3-31,22.4c-9.6,8.2-19.4,17.6-29.2,28.2
						c9.8,10.6,19.6,20,29.2,28.2c10.6,9.1,21.1,16.6,31,22.4c8.7,5.1,15.4,7.8,19.5,9.2C111.8,144.2,113.8,144.6,114.8,144.8z"/>
				</g>
				<g>
					<path class="st3" d="M385.1,166.7l-271.9,0c-0.5,0-11.7-1.1-31.2-11.9c-11.4-6.3-23.3-14.6-35.3-24.6
						c-15-12.6-30.4-28-45.7-45.8L0,83.4l0.9-1.1c15.3-17.8,30.6-33.2,45.7-45.8c12.1-10.1,24-18.4,35.3-24.6
						C101.4,1.1,112.7,0,113.1,0l0.1,0l271.8,0l0.1,0c0.5,0,11.7,1.1,31.2,11.9c11.4,6.3,23.3,14.6,35.3,24.6
						c15,12.6,30.4,28,45.7,45.8l0.9,1.1l-0.9,1.1c-15.3,17.8-30.6,33.2-45.7,45.8c-12.1,10.1-24,18.4-35.3,24.6
						C396.8,165.6,385.6,166.7,385.1,166.7L385.1,166.7z M113.3,163.5h271.6c0.9-0.1,11.8-1.5,30.1-11.6
						c17.4-9.6,45.2-29.3,78.9-68.5c-33.9-39.3-61.7-59-79.2-68.6c-18.2-10-29-11.4-29.9-11.5l-271.6,0c-0.9,0.1-11.8,1.5-30.1,11.6
						C65.8,24.5,38,44.2,4.3,83.4c33.7,39.2,61.5,58.9,78.9,68.5C101.5,162,112.4,163.4,113.3,163.5z"/>
				</g>
			</g>
		</g>
		<g>
			<g>
				<g>
					<path class="st4" d="M102,33.6l-0.6,10.3c0,0-0.5,2.1,4.9,2.1c5.4,0,11.1,0,11.1,0s2.7,0,2.7,3.3c0,3.4,0.1,83.1,0.1,83.1
						s-0.1,2.4,3.2,2.4c3.3,0,7.7,0,7.7,0s2.3-0.1,2.2-5.9c-0.1-5.8,0.1-78.4,0.3-78.9c0.2-0.5,0.2-3.1,2.9-3.1s8.8,0.3,8.8,0.3
						s3.5,0.9,3.5-3.7s-0.3-8.5-0.3-8.5s-0.6-2.7-5.3-2.7s-37.2,0-37.2,0S102,32.5,102,33.6z"/>
				</g>
				<g>
					<path class="st4" d="M154.7,60.6c-2.9,0-7,0.7-7,0.7s-2.5,0.5-2.5,2.5l-0.1,67.9c0,0-0.1,3.2,3,3.2c3.1,0,7.9,0,7.9,0
						s2.5,0.2,2.5-7.4c0-6.8-0.5-54.5-0.6-64.5c0,0,0.3-2.4-1.7-2.4S154.7,60.6,154.7,60.6z"/>
				</g>
				<g>
					<path class="st4" d="M168.5,33.6l0.1,98.8c0,0,0.4,2.6,3,2.6c2.6,0,7.1,0,7.1,0s3.3,0.2,2.8-6c-0.5-6.2,0.1-34.3,0.1-34.3
						s0.2-3.6,2-3.6c1.8,0,3,1.6,3,1.6s1.8,1.7,1.8,4.6s0,34,0,34s-0.2,3.4,3.3,3.3s29-1.5,29-1.5s2.4-0.1,2.3-4.1
						c-0.1-4,0-7.8,0-7.8s0-2.6-4.6-2.3c-4.6,0.3-13.5,0.9-13.5,0.9s-3.6,0.6-3.6-5.4c0-6-0.7-29-0.7-29s-0.9-6-7.4-6
						c0,0-0.9-0.3-0.9-1s1.4-1.3,2.1-1.9c0.7-0.7,13.1-39.6,13.3-40.4s0.1-3.6-3.8-3.6s-6.4,0-6.4,0s-1.9,0.1-3.3,1.5
						s-10.5,37.4-10.5,37.4s-0.5,0.7-1.4,0.7s-0.9-2.5-0.9-3.8s-0.3-32.8-0.3-32.8s0.7-3.8-3-3.8c-3.7,0-7.4,0-7.4,0
						S168.5,31.1,168.5,33.6z"/>
				</g>
				<g>
					<g>
						<path class="st4" d="M212.8,66.4l0.7,43.2c0,0-0.1,3.1,3.5,3.1c3.6,0,8-0.5,8-0.5s1.8,0.2,1.8-5.4c0-5.6-0.9-39.4-0.9-39.4
							s0.4-3.1-2.9-3.1c-3.3,0-8.3,0-8.3,0S212.8,64.4,212.8,66.4z"/>
					</g>
					<g>
						<path class="st4" d="M210.6,41.6l-0.5,6.6c0,0-0.4,2.9,2.7,2.9c3.1,0,12.2,0,12.2,0s2.4-0.8,2.4-3.4s0-6.4,0-6.4
							s0.3-2.6-2.9-2.6c-3.1,0-10.2,0-10.2,0S210.9,38,210.6,41.6z"/>
					</g>
				</g>
			</g>
			<g>
				<g>
					<path class="st5" d="M352.8,41.6l-0.6,7.9c0,0-0.5,1.6,4.6,1.6c5.1,0,10.4,0,10.4,0s2.6,0,2.6,2.6c0,2.6-0.2,58.2-0.2,58.2
						s-0.1,1.9,3,1.9s7.2,0,7.2,0s2.2-0.1,2.1-4.6s0.4-54.6,0.6-55s0.1-2.4,2.7-2.4s8.3,0.3,8.3,0.3s3.3,0.7,3.3-2.8
						s-0.2-6.5-0.2-6.5s-0.5-2-5-2s-35,0-35,0S352.8,40.7,352.8,41.6z"/>
				</g>
				<g>
					<path class="st5" d="M294.8,95.6c-1.6-2.6-2.6-6.8-8.4-9.9l0,0c0,0-0.8-0.9-0.3-1.9l0,0c0.8-1.5,1.2-3.1,1.2-4.7
						c0-5.2,1.3-20.6-1-25.2c-2.3-4.5-3.1-14-26.1-14h-6.4c0,0-3.7-0.3-3.7,1l0.4,48.9c0,0,0,0,0.1,0l0.4,41.6c0,0-0.2,2.1,3.8,2.8
						c4.2,0.7,27.2,1,31.4,0c3.3-0.8,9.6-8.4,9.6-13.6C296,115.6,297.6,100.2,294.8,95.6z M263,78V54.1c0-2.2,3.4-1.8,3.4-1.8
						c7.9,0,8.2,7.7,8.2,7.7s0,10.3,0,15.1c0,4.7-3.3,5.1-3.3,5.1s-2.9,0.6-5.8,0.6C262.6,80.8,263,78,263,78z M280.4,116.7
						c0,4.7-4.1,5.1-4.1,5.1s-3.5,0.6-7,0.6c-3.5,0-3-2.8-3-2.8V95.7c0-2.2,4.1-1.8,4.1-1.8c9.6,0,10,7.7,10,7.7
						S280.4,111.9,280.4,116.7z"/>
				</g>
				<g>
					<path class="st5" d="M378.4,120.2c-3.3,0-28,0.8-28,0.8s-1.9,0.1-2.6-4.4c-0.7-4.5-8.1-73.5-8.1-73.5s-0.2-2.4-4.3-2.4
						s-19.4,1-19.4,1s-3.4,0.4-3.7,3l-0.7,7.5c0,0-0.5,1.8,1.9,1.8s3,0,3,0s1.6-0.5,1.6,2.8c0,3.2-13.9,71.6-13.9,71.6
						s-0.8,3.1,1.3,3.1c2.1,0,7.1,0.5,7.4,0.5c0.2,0,1.9,0.1,2.9-6.2c1.1-6.3,2.3-13.3,2.3-13.3s0.1-2.4,3.2-2.4s13,0.3,13,0.3
						s1.7-0.5,2,3.5c0.4,4,1.9,17,1.9,17s0.6,3.3,4.1,3.4c3.5,0.1,37.7,0.4,37.7,0.4s1.6-0.3,1.6-3.7c0-3.4,0-8.9,0-8.9
						S381.7,120.2,378.4,120.2z M332.3,99.2c0,0-6.6,0-9.5,0c-2.9,0-1.7-2.9-1.7-2.9l7.2-36.3c0,0,0.5-0.3,1.2,0s0.7,0.8,0.7,0.8
						s3.2,26.9,3.9,32.9C334.8,99.7,332.3,99.2,332.3,99.2z"/>
				</g>
			</g>
		</g>
	</g>
</g>
</svg>
